<?xml version="1.0" standalone="no"?>
<!DOCTYPE svg PUBLIC "-//W3C//DTD SVG 20010904//EN"
 "http://www.w3.org/TR/2001/REC-SVG-20010904/DTD/svg10.dtd">
<svg version="1.0" xmlns="http://www.w3.org/2000/svg"
 width="125.000000pt" height="125.000000pt" viewBox="0 0 125.000000 125.000000"
 preserveAspectRatio="xMidYMid meet">
<metadata>
Created by potrace 1.11, written by Peter Selinger 2001-2013
</metadata>
<g transform="translate(0.000000,125.000000) scale(0.100000,-0.100000)"
fill="#000000" stroke="none">
<path d="M495 1236 c-240 -56 -421 -230 -480 -461 -8 -33 -15 -103 -15 -159
l0 -100 53 56 c56 60 47 57 197 73 97 10 171 27 167 39 -6 18 -109 76 -135 76
-15 0 -22 5 -19 13 2 7 16 11 33 9 16 -2 55 -5 87 -7 32 -1 77 -6 100 -9 81
-12 210 32 250 87 14 17 22 49 26 94 8 89 15 93 191 93 l135 1 -54 49 c-60 55
-159 110 -241 134 -78 23 -221 29 -295 12z"/>
<path d="M1128 913 c-16 -2 -28 -9 -28 -14 0 -5 -9 -9 -20 -9 -11 0 -20 -5
-20 -11 0 -6 -7 -9 -14 -6 -10 4 -13 1 -9 -9 5 -14 -43 -94 -57 -94 -11 0 -84
-99 -103 -140 -9 -20 -15 -55 -14 -83 l2 -49 74 -46 c85 -54 169 -127 158
-138 -4 -4 -20 2 -35 13 -31 23 -87 53 -99 53 -4 0 19 -25 52 -54 74 -66 66
-85 -10 -25 -128 101 -221 159 -310 195 l-95 37 -51 -16 c-28 -10 -57 -17 -65
-17 -7 0 -29 -9 -48 -21 -21 -12 -62 -23 -96 -26 -45 -4 -58 -9 -50 -18 14
-17 2 -25 -37 -25 -23 0 -33 -5 -33 -16 0 -16 -58 -74 -74 -74 -5 0 -17 -7
-27 -16 -16 -15 -17 -20 -5 -43 19 -35 120 -129 181 -168 28 -17 86 -44 130
-59 68 -23 97 -27 190 -28 125 0 191 15 296 70 284 149 406 497 278 794 -12
28 -24 49 -28 49 -3 -1 -18 -4 -33 -6z"/>
</g>
</svg>
